<svg width="20" height="20" viewBox="0 0 20 20" fill="none" xmlns="http://www.w3.org/2000/svg">
    <path
        d="M7.63303 9.68334C7.60803 9.68334 7.59136 9.68334 7.56636 9.68334C7.5247 9.675 7.46636 9.675 7.41636 9.68334C4.9997 9.60834 3.1747 7.70834 3.1747 5.36667C3.1747 2.98334 5.11636 1.04167 7.4997 1.04167C9.88303 1.04167 11.8247 2.98334 11.8247 5.36667C11.8164 7.70834 9.98303 9.60834 7.65803 9.68334C7.6497 9.68334 7.64137 9.68334 7.63303 9.68334ZM7.4997 2.29167C5.80803 2.29167 4.4247 3.67501 4.4247 5.36667C4.4247 7.03334 5.7247 8.37501 7.38303 8.43334C7.43303 8.425 7.54137 8.425 7.6497 8.43334C9.28303 8.35834 10.5664 7.01667 10.5747 5.36667C10.5747 3.67501 9.19137 2.29167 7.4997 2.29167Z"
        fill="#7E92A2" />
    <path
        d="M13.783 9.79167C13.758 9.79167 13.733 9.79167 13.708 9.78334C13.3664 9.81667 13.0164 9.57501 12.983 9.23334C12.9497 8.89167 13.158 8.58334 13.4997 8.54167C13.5997 8.53334 13.708 8.53334 13.7997 8.53334C15.0164 8.46667 15.9664 7.46667 15.9664 6.24167C15.9664 4.97501 14.9414 3.95001 13.6747 3.95001C13.333 3.95834 13.0497 3.67501 13.0497 3.33334C13.0497 2.99167 13.333 2.70834 13.6747 2.70834C15.6247 2.70834 17.2164 4.30001 17.2164 6.25001C17.2164 8.16667 15.7164 9.71667 13.808 9.79167C13.7997 9.79167 13.7914 9.79167 13.783 9.79167Z"
        fill="#7E92A2" />
    <path
        d="M7.64137 18.7917C6.00803 18.7917 4.36636 18.375 3.1247 17.5417C1.96636 16.775 1.33303 15.725 1.33303 14.5833C1.33303 13.4417 1.96636 12.3833 3.1247 11.6083C5.6247 9.95001 9.6747 9.95001 12.158 11.6083C13.308 12.375 13.9497 13.425 13.9497 14.5667C13.9497 15.7083 13.3164 16.7667 12.158 17.5417C10.908 18.375 9.2747 18.7917 7.64137 18.7917ZM3.81636 12.6583C3.01636 13.1917 2.58303 13.875 2.58303 14.5917C2.58303 15.3 3.0247 15.9833 3.81636 16.5083C5.89136 17.9 9.39137 17.9 11.4664 16.5083C12.2664 15.975 12.6997 15.2917 12.6997 14.575C12.6997 13.8667 12.258 13.1833 11.4664 12.6583C9.39137 11.275 5.89136 11.275 3.81636 12.6583Z"
        fill="#7E92A2" />
    <path
        d="M15.283 17.2917C14.9914 17.2917 14.733 17.0917 14.6747 16.7917C14.608 16.45 14.8247 16.125 15.158 16.05C15.683 15.9417 16.1664 15.7333 16.5414 15.4417C17.0164 15.0833 17.2747 14.6333 17.2747 14.1583C17.2747 13.6833 17.0164 13.2333 16.5497 12.8833C16.183 12.6 15.7247 12.4 15.183 12.275C14.8497 12.2 14.633 11.8667 14.708 11.525C14.783 11.1917 15.1164 10.975 15.458 11.05C16.1747 11.2083 16.7997 11.4917 17.308 11.8833C18.083 12.4667 18.5247 13.2917 18.5247 14.1583C18.5247 15.025 18.0747 15.85 17.2997 16.4417C16.783 16.8417 16.133 17.1333 15.4164 17.275C15.3664 17.2917 15.3247 17.2917 15.283 17.2917Z"
        fill="#7E92A2" />
</svg>
    