<svg width="20" height="20" viewBox="0 0 20 20" fill="none" xmlns="http://www.w3.org/2000/svg">
    <path
        d="M16.6665 16.0501H9.10819C8.73319 16.0501 8.42486 15.7417 8.42486 15.3667C8.42486 14.9917 8.73319 14.6834 9.10819 14.6834H16.6665C17.0415 14.6834 17.3499 14.9917 17.3499 15.3667C17.3499 15.7501 17.0415 16.0501 16.6665 16.0501Z"
        fill="#7E92A2" />
    <path
        d="M16.6665 10.8084H9.10819C8.73319 10.8084 8.42486 10.5001 8.42486 10.1251C8.42486 9.75008 8.73319 9.44174 9.10819 9.44174H16.6665C17.0415 9.44174 17.3499 9.75008 17.3499 10.1251C17.3499 10.5001 17.0415 10.8084 16.6665 10.8084Z"
        fill="#7E92A2" />
    <path
        d="M16.6665 5.55841H9.10819C8.73319 5.55841 8.42486 5.25008 8.42486 4.87508C8.42486 4.50008 8.73319 4.19174 9.10819 4.19174H16.6665C17.0415 4.19174 17.3499 4.50008 17.3499 4.87508C17.3499 5.25008 17.0415 5.55841 16.6665 5.55841Z"
        fill="#7E92A2" />
    <path
        d="M4.09152 6.69174C3.90819 6.69174 3.73319 6.61674 3.60819 6.49174L2.84986 5.73341C2.58319 5.46674 2.58319 5.03341 2.84986 4.76674C3.11652 4.50008 3.54986 4.50008 3.81652 4.76674L4.09152 5.04174L5.87486 3.25841C6.14152 2.99174 6.57486 2.99174 6.84152 3.25841C7.10819 3.52508 7.10819 3.95841 6.84152 4.22508L4.57486 6.49174C4.44152 6.61674 4.27486 6.69174 4.09152 6.69174Z"
        fill="#7E92A2" />
    <path
        d="M4.09152 11.9417C3.91652 11.9417 3.74152 11.8751 3.60819 11.7417L2.84986 10.9834C2.58319 10.7167 2.58319 10.2834 2.84986 10.0167C3.11652 9.75008 3.54986 9.75008 3.81652 10.0167L4.09152 10.2917L5.87486 8.50841C6.14152 8.24174 6.57486 8.24174 6.84152 8.50841C7.10819 8.77508 7.10819 9.20841 6.84152 9.47508L4.57486 11.7417C4.44152 11.8751 4.26652 11.9417 4.09152 11.9417Z"
        fill="#7E92A2" />
    <path
        d="M4.09152 16.9417C3.91652 16.9417 3.74152 16.8751 3.60819 16.7417L2.84986 15.9834C2.58319 15.7167 2.58319 15.2834 2.84986 15.0167C3.11652 14.7501 3.54986 14.7501 3.81652 15.0167L4.09152 15.2917L5.87486 13.5084C6.14152 13.2417 6.57486 13.2417 6.84152 13.5084C7.10819 13.7751 7.10819 14.2084 6.84152 14.4751L4.57486 16.7417C4.44152 16.8751 4.26652 16.9417 4.09152 16.9417Z"
        fill="#7E92A2" />
</svg>
    