<svg width="20" height="20" viewBox="0 0 20 20" fill="none" xmlns="http://www.w3.org/2000/svg">
    <path
        d="M13.3333 18.9583H6.66668C2.81668 18.9583 2.10002 17.1667 1.91668 15.425L1.29168 8.75001C1.20002 7.87501 1.17502 6.58334 2.04168 5.61667C2.79168 4.78334 4.03335 4.38334 5.83335 4.38334H14.1667C15.975 4.38334 17.2167 4.79167 17.9583 5.61667C18.825 6.58334 18.8 7.87501 18.7083 8.75834L18.0833 15.4167C17.9 17.1667 17.1833 18.9583 13.3333 18.9583ZM5.83335 5.62501C4.42502 5.62501 3.45835 5.9 2.96668 6.45001C2.55835 6.90001 2.42502 7.59167 2.53335 8.62501L3.15835 15.3C3.30002 16.6167 3.65835 17.7083 6.66668 17.7083H13.3333C16.3333 17.7083 16.7 16.6167 16.8417 15.2917L17.4667 8.63334C17.575 7.59167 17.4417 6.90001 17.0333 6.45001C16.5417 5.9 15.575 5.62501 14.1667 5.62501H5.83335Z"
        fill="#7E92A2" />
    <path
        d="M13.3333 5.62501C12.9917 5.62501 12.7083 5.34167 12.7083 5.00001V4.33334C12.7083 2.85001 12.7083 2.29167 10.6667 2.29167H9.33335C7.29168 2.29167 7.29168 2.85001 7.29168 4.33334V5.00001C7.29168 5.34167 7.00835 5.62501 6.66668 5.62501C6.32502 5.62501 6.04168 5.34167 6.04168 5.00001V4.33334C6.04168 2.86667 6.04168 1.04167 9.33335 1.04167H10.6667C13.9583 1.04167 13.9583 2.86667 13.9583 4.33334V5.00001C13.9583 5.34167 13.675 5.62501 13.3333 5.62501Z"
        fill="#7E92A2" />
    <path
        d="M10 13.9583C7.70835 13.9583 7.70835 12.5417 7.70835 11.6917V10.8333C7.70835 9.65834 7.99168 9.37501 9.16668 9.37501H10.8333C12.0083 9.37501 12.2917 9.65834 12.2917 10.8333V11.6667C12.2917 12.5333 12.2917 13.9583 10 13.9583ZM8.95835 10.625C8.95835 10.6917 8.95835 10.7667 8.95835 10.8333V11.6917C8.95835 12.55 8.95835 12.7083 10 12.7083C11.0417 12.7083 11.0417 12.575 11.0417 11.6833V10.8333C11.0417 10.7667 11.0417 10.6917 11.0417 10.625C10.975 10.625 10.9 10.625 10.8333 10.625H9.16668C9.10002 10.625 9.02502 10.625 8.95835 10.625Z"
        fill="#7E92A2" />
    <path
        d="M11.6667 12.3083C11.3583 12.3083 11.0833 12.075 11.05 11.7583C11.0083 11.4167 11.25 11.1 11.5917 11.0583C13.7917 10.7833 15.9 9.95001 17.675 8.65834C17.95 8.45001 18.3417 8.51667 18.55 8.80001C18.75 9.07501 18.6917 9.46667 18.4083 9.675C16.4583 11.0917 14.1583 12 11.7417 12.3083C11.7167 12.3083 11.6917 12.3083 11.6667 12.3083Z"
        fill="#7E92A2" />
    <path
        d="M8.33335 12.3167C8.30835 12.3167 8.28335 12.3167 8.25835 12.3167C5.97502 12.0583 3.75002 11.225 1.82502 9.90834C1.54168 9.71667 1.46668 9.32501 1.65835 9.04167C1.85002 8.75834 2.24168 8.68334 2.52502 8.87501C4.28335 10.075 6.30835 10.8333 8.39168 11.075C8.73335 11.1167 8.98335 11.425 8.94168 11.7667C8.91668 12.0833 8.65002 12.3167 8.33335 12.3167Z"
        fill="#7E92A2" />
</svg>
    